# xmcd
#
# Track frame offsets:
#	150
#	11444
#	23509
#	34835
#	44775
#	55920
#	68033
#	79499
#	89655
#	99630
#	115240
#	126427
#	137522
#	148862
#	161533
#	176335
#	187292
#	199092
#	210063
#	220644
#
# Disc length: 3081 seconds
#
# Revision: 0
# Processed by: cddbd v1.5.2PL0 Copyright (c) Steve Scherf et al.
# Submitted via: audiograbber 1.83.01
#
DISCID=210c0714
DTITLE=Various Artist - 20 Golden Country Memories
DYEAR=1900
DGENRE=Country
TTITLE0=Don Gibson - Sea Of Heartbreak
TTITLE1=Lynn Anderson - Stand By Your Man
TTITLE2=Conway Twitty - I Love You More Today
TTITLE3=Bobby Bare - Help Me Make It Through The Night
TTITLE4=Frankie Lane - Answer Me ( My Love )
TTITLE5=Charlie Rich - Behind Closed Doors
TTITLE6=Donna Fargo - The Happiest Girl In The Whole USA
TTITLE7=Faron Young - Hello Walls
TTITLE8=Glenn Yarborough - Baby The Rain Must Fall
TTITLE9=Kinston Trio - Tomorrow Is A Long Time
TTITLE10=Johnny Tillotson - Poetry In Motion
TTITLE11=Johny Cash - Oh Lonesome Me
TTITLE12=Ronnie Carroll - Roses Are Red ( My Love )
TTITLE13=Claude King - Wolverton Mountain
TTITLE14=Jeannie C. Riley - Harper Valley P.T.A
TTITLE15=Roger Miller - King Of The Road
TTITLE16=Del Reeves - Girl On The Billboard
TTITLE17=Kitty Wells - Heartbreak USA
TTITLE18=Leroy Van Dyke - Walk On By
TTITLE19=The Everly Brothers - Bye Bye Love
EXTD=
EXTT0=
EXTT1=
EXTT2=
EXTT3=
EXTT4=
EXTT5=
EXTT6=
EXTT7=
EXTT8=
EXTT9=
EXTT10=
EXTT11=
EXTT12=
EXTT13=
EXTT14=
EXTT15=
EXTT16=
EXTT17=
EXTT18=
EXTT19=
PLAYORDER=
